<svg viewBox="0 0 200 200" fill="none" xmlns="http://www.w3.org/2000/svg">
<rect width="200" height="200" fill="#F9F9F9"/>
<path d="M180.869 106.545C181.303 109.638 181.105 112.787 180.286 115.801L177.917 127.609C177.222 130.539 176.002 133.319 174.315 135.814C173.188 137.606 172.206 139.486 171.38 141.435C170.292 144.586 169.549 147.846 169.162 151.158C168.778 154.321 168.079 157.439 167.077 160.464C166.38 162.793 165.133 164.921 163.441 166.668C161.397 168.257 159.019 169.363 156.487 169.903C155.886 170.087 155.286 170.27 154.702 170.47C148.954 172.605 143.471 175.392 138.358 178.776C131.32 183.062 124.666 187.098 116.894 188.115C111.207 188.849 105.703 187.532 100.366 186.231C96.403 185.14 92.3419 184.442 88.2418 184.146C77.1512 183.713 69.1793 181.328 61.5743 176.158C52.2849 169.853 45.2636 161.031 40.1936 154.043C38.8765 152.116 37.7271 150.079 36.758 147.956C35.862 146.032 34.8368 144.171 33.6893 142.385C31.627 139.469 29.4055 136.668 27.0349 133.997C25.2171 131.878 23.3492 129.694 21.6981 127.476C20.3528 125.901 19.3681 124.051 18.8129 122.055C18.5657 119.54 18.9617 117.004 19.9636 114.684L20.3305 113.55C22.7655 105.828 23.1991 97.6226 23.616 89.7007C23.8025 84.6003 24.2478 79.5126 24.9502 74.4574C29.3031 46.7392 51.3509 22.0229 78.5688 14.3679C85.0201 12.5654 91.6885 11.6585 98.3868 11.6728C109.237 11.6762 119.969 13.9242 129.908 18.2753C139.847 22.6264 148.779 28.9866 156.141 36.9561C159.749 40.7726 162.687 45.1705 164.831 49.9646C167.549 56.4355 168.199 63.7403 168.833 70.795C169.584 79.3339 170.367 88.1564 174.82 95.6446C175.471 96.7454 176.205 97.8127 176.905 98.8467C178.719 101.128 180.066 103.744 180.869 106.545ZM158.188 122.756C159.255 122.268 160.172 121.504 160.844 120.542C161.516 119.58 161.917 118.455 162.007 117.286C161.953 116.226 161.704 115.186 161.273 114.217C160.561 112.21 159.632 110.286 158.505 108.48C157.466 106.982 156.213 105.644 154.786 104.51C152.561 102.569 149.96 101.108 147.145 100.218C144.329 99.3287 141.361 99.0298 138.425 99.3404C134.289 99.9241 126.851 104.677 125.049 110.064C124.791 110.816 124.656 111.604 124.649 112.399C124.659 113.308 124.853 114.205 125.22 115.036C125.587 115.868 126.119 116.616 126.784 117.235C128.846 118.961 131.314 120.132 133.955 120.638L141.193 122.639C144.471 123.661 147.869 124.25 151.3 124.39C153.698 124.447 156.071 123.884 158.188 122.756V122.756ZM144.162 153.376C144.187 151.455 143.571 149.581 142.411 148.049C141.251 146.518 139.614 145.417 137.758 144.92C136.17 144.759 134.573 145.116 133.205 145.938C132.221 146.388 131.237 146.905 130.236 147.422C127.93 148.825 125.377 149.776 122.715 150.224C110.84 151.358 98.5153 151.908 89.8262 145.171C89.6761 145.054 89.5093 144.887 89.3259 144.72C88.8626 144.174 88.2885 143.732 87.6416 143.424C86.9946 143.117 86.2896 142.95 85.5734 142.936C84.8482 143.046 84.1519 143.298 83.525 143.679C82.898 144.06 82.3529 144.561 81.921 145.154C80.1548 147.274 79.2658 149.988 79.4361 152.742C79.9697 158.363 86.2405 161.531 91.2938 164.066V164.083C98.0642 167.289 105.467 168.936 112.958 168.903C114.476 168.97 115.91 169.036 117.361 169.036C120.284 169.07 123.198 168.693 126.017 167.919C130.67 166.584 134.981 164.263 138.658 161.114C141.777 158.446 144.029 156.511 144.162 153.376V153.376ZM88.5921 122.789C89.3935 121.817 89.9778 120.684 90.3057 119.467C90.6336 118.251 90.6976 116.978 90.4933 115.735C89.2425 107.913 79.336 102.442 72.9818 101.659C71.0292 101.485 69.0613 101.643 67.1613 102.126C64.0758 102.691 61.1773 104.009 58.7224 105.961C55.9905 107.982 54.0546 110.898 53.2522 114.2C52.7441 115.977 52.6744 117.85 53.0491 119.66C53.4238 121.47 54.2317 123.161 55.4036 124.59C58.0053 127.25 61.446 128.929 65.1433 129.343C66.5134 129.537 67.8957 129.632 69.2794 129.627C71.5475 129.627 73.749 129.427 75.8003 129.227C80.7236 128.771 85.2929 126.472 88.5921 122.789V122.789Z" fill="#060606"/>
</svg>
